<svg id="_017-microphone-2" data-name="017-microphone-2" xmlns="http://www.w3.org/2000/svg" width="21.15" height="21.228" viewBox="0 0 21.15 21.228">
  <path id="Trazado_11269" data-name="Trazado 11269" d="M19.773,1.385a4.7,4.7,0,0,0-6.666,0,4.727,4.727,0,0,0-1.293,2.443.62.62,0,0,0-.7.126l-3.99,4a.622.622,0,0,0,0,.878l.569.571L.52,17.737a2.114,2.114,0,0,0,.093,2.875,2.1,2.1,0,0,0,2.871.093l8.292-7.2.566.568a.622.622,0,0,0,.881,0l3.99-4a.622.622,0,0,0,.123-.7,4.729,4.729,0,0,0,2.437-7.982ZM2.662,19.773a.854.854,0,0,1-1.168-.038.866.866,0,0,1-.038-1.178l.981-1.122,1.346,1.35Zm2.063-1.8L3.265,16.5l-.017-.017,5.327-6.193,2.321,2.33Zm8.057-5.215L8.444,8.4l3.112-3.123,4.339,4.355ZM16.23,8.2,12.979,4.94a3.489,3.489,0,0,1,1.01-2.677,3.458,3.458,0,0,1,4.9,0,3.5,3.5,0,0,1,0,4.927A3.457,3.457,0,0,1,16.23,8.2Zm0,0" transform="translate(-0.001)" fill="#c5cdd2"/>
  <path id="Trazado_11270" data-name="Trazado 11270" d="M235.661,160.75a.622.622,0,0,0,.88.88l.676-.676.231,2.265a.622.622,0,0,0,1.059.377l1.6-1.6a.622.622,0,0,0-.88-.879l-.676.676-.231-2.265a.622.622,0,0,0-1.059-.377Zm0,0" transform="translate(-225.716 -152.375)" fill="#c5cdd2"/>
</svg>
