<svg xmlns="http://www.w3.org/2000/svg" width="26.395" height="23.61" viewBox="0 0 26.395 23.61">
  <g id="chat" transform="translate(0 0)">
    <path id="Trazado_11410" data-name="Trazado 11410" d="M3.689,9.778a.516.516,0,0,1-.516-.515V7.583H2.022A1.781,1.781,0,0,1,.082,6.032V-.527a1.781,1.781,0,0,1,1.94-1.551H17.216a1.781,1.781,0,0,1,1.94,1.551v6.56a1.781,1.781,0,0,1-1.94,1.551H6.875L3.992,9.68a.515.515,0,0,1-.3.1ZM2.022-1.048c-.52,0-.909.275-.909.52v6.56c0,.246.389.52.909.52H3.689a.516.516,0,0,1,.516.515V8.251l2.2-1.6a.514.514,0,0,1,.3-.1H17.216c.52,0,.909-.275.909-.52V-.527c0-.246-.389-.52-.909-.52Zm0,0" transform="translate(-0.082 2.078)" fill="#c5cdd2"/>
    <path id="Trazado_11411" data-name="Trazado 11411" d="M134.6,73.035h-9.82a.516.516,0,0,1,0-1.031h9.82a.516.516,0,0,1,0,1.031Zm0,0" transform="translate(-119.135 -68.943)" fill="#c5cdd2"/>
    <path id="Trazado_11412" data-name="Trazado 11412" d="M75.418,73.035a.516.516,0,1,1,0-1.031h0a.516.516,0,1,1,0,1.031Zm0,0" transform="translate(-71.811 -68.943)" fill="#c5cdd2"/>
    <path id="Trazado_11413" data-name="Trazado 11413" d="M88.669,132.4H76.809a.516.516,0,0,1,0-1.031H88.669a.516.516,0,1,1,0,1.031Zm0,0" transform="translate(-73.144 -125.857)" fill="#c5cdd2"/>
    <path id="Trazado_11414" data-name="Trazado 11414" d="M192.705,270.3a.515.515,0,0,1-.321-.112l-2.877-2.291H179.179a1.815,1.815,0,0,1-1.94-1.65v-7.184a1.815,1.815,0,0,1,1.94-1.65h15.194a1.815,1.815,0,0,1,1.94,1.65v7.184a1.815,1.815,0,0,1-1.94,1.65h-1.152v1.888a.516.516,0,0,1-.515.516Zm-13.527-11.857c-.484,0-.909.289-.909.619v7.184c0,.33.425.619.909.619h10.509a.515.515,0,0,1,.321.112l2.182,1.737v-1.334a.516.516,0,0,1,.516-.516h1.667c.484,0,.909-.289.909-.619v-7.184c0-.33-.425-.619-.909-.619Zm0,0" transform="translate(-169.918 -246.692)" fill="#c5cdd2"/>
    <path id="Trazado_11415" data-name="Trazado 11415" d="M264.448,335.488H252.59a.515.515,0,1,1,0-1.031h11.858a.515.515,0,1,1,0,1.031Zm0,0" transform="translate(-241.662 -320.551)" fill="#c5cdd2"/>
    <path id="Trazado_11416" data-name="Trazado 11416" d="M264.448,410.281H252.59a.516.516,0,1,1,0-1.031h11.858a.516.516,0,1,1,0,1.031Zm0,0" transform="translate(-241.662 -392.253)" fill="#c5cdd2"/>
  </g>
</svg>
