<svg width="100" height="100" viewBox="0 0 100 100" fill="none" xmlns="http://www.w3.org/2000/svg">
<path fill-rule="evenodd" clip-rule="evenodd" d="M8.33337 50C8.33337 27 26.9584 8.33331 49.9584 8.33331C73 8.33331 91.6667 27 91.6667 50C91.6667 73 73 91.6667 49.9584 91.6667C26.9584 91.6667 8.33337 73 8.33337 50ZM11.6667 50.1666C11.6667 71.4379 28.8955 88.6666 50.1667 88.6666C71.438 88.6666 88.6667 71.4379 88.6667 50.1666C88.6667 28.8954 71.438 11.6666 50.1667 11.6666C28.8955 11.6666 11.6667 28.8954 11.6667 50.1666Z" fill="white"/>
<path d="M45.8334 66.6667C45.8334 64.3655 47.6989 62.5 50 62.5V62.5C52.3012 62.5 54.1667 64.3655 54.1667 66.6667V66.6667C54.1667 68.9678 52.3012 70.8333 50 70.8333V70.8333C47.6989 70.8333 45.8334 68.9678 45.8334 66.6667V66.6667Z" fill="white"/>
<path d="M46.2338 31.2104C46.1089 30.0292 47.0349 29 48.2227 29H52.0791C53.2769 29 54.2061 30.0458 54.0652 31.2353L51.3961 53.7665C51.3128 54.47 50.7163 55 50.0079 55V55C49.2927 55 48.6929 54.4603 48.6177 53.7491L46.2338 31.2104Z" fill="white"/>
</svg>
