<svg xmlns="http://www.w3.org/2000/svg" width="16.834" height="16.834" viewBox="0 0 16.834 16.834">
  <g id="ic-home" transform="translate(0 0)">
    <path id="ic-home-2" data-name="ic-home" d="M16.639,8.547l-2.1-2.131h0L9.107.914h0L8.886.691a.658.658,0,0,0-.939,0L7.728.914h0L2.3,6.416h0L.194,8.547a.679.679,0,0,0,0,.952.658.658,0,0,0,.94,0L2.1,8.517V15.7a1.619,1.619,0,0,0,1.606,1.627h9.416A1.619,1.619,0,0,0,14.731,15.7V8.517L15.7,9.5a.658.658,0,0,0,.939,0A.679.679,0,0,0,16.639,8.547Zm-3.514,7.435H3.709a.28.28,0,0,1-.277-.281V7.17L8.417,2.119,13.4,7.17V15.7A.279.279,0,0,1,13.125,15.982Z" transform="translate(0 -0.494)" fill="#ed9b9d"/>
  </g>
</svg>
