<svg fill="none" height="123" viewBox="0 0 123 123" width="123" xmlns="http://www.w3.org/2000/svg">
<g filter="url(#filter0_d)">
<path d="M61.5 98C81.1061 98 97 82.1061 97 62.5C97 42.8939 81.1061 27 61.5 27C41.8939 27 26 42.8939 26 62.5C26 82.1061 41.8939 98 61.5 98Z" fill="white"/>
</g>
<path d="M64.4191 61.751C64.392 61.6829 64.3517 61.6208 64.3006 61.5683C64.2495 61.5158 64.1885 61.4739 64.1211 61.445C64.0538 61.4161 63.9814 61.4008 63.9081 61.3999C63.8348 61.3991 63.7621 61.4127 63.6941 61.44L61.1141 62.472L58.5341 61.44C58.4661 61.4127 58.3933 61.3991 58.32 61.4C58.2468 61.4009 58.1744 61.4162 58.107 61.445C58.0396 61.4738 57.9786 61.5156 57.9274 61.5681C57.8762 61.6205 57.8358 61.6825 57.8086 61.7505C57.7813 61.8185 57.7677 61.8912 57.7686 61.9645C57.7694 62.0378 57.7847 62.1102 57.8136 62.1775C57.8424 62.2449 57.8842 62.3059 57.9366 62.3572C57.9891 62.4084 58.051 62.4487 58.1191 62.476L59.6121 63.076L58.1191 63.676C58.051 63.7032 57.9891 63.7436 57.9366 63.7948C57.8842 63.846 57.8424 63.9071 57.8136 63.9744C57.7847 64.0418 57.7694 64.1142 57.7686 64.1874C57.7677 64.2607 57.7813 64.3335 57.8086 64.4015C57.8358 64.4695 57.8762 64.5315 57.9274 64.5839C57.9786 64.6364 58.0396 64.6781 58.107 64.707C58.1744 64.7358 58.2468 64.7511 58.32 64.752C58.3933 64.7528 58.4661 64.7392 58.5341 64.712L61.1141 63.68L63.6941 64.712C63.7621 64.7392 63.8348 64.7528 63.9081 64.752C63.9814 64.7511 64.0538 64.7358 64.1211 64.707C64.1885 64.6781 64.2495 64.6364 64.3007 64.5839C64.352 64.5315 64.3923 64.4695 64.4196 64.4015C64.4468 64.3335 64.4604 64.2607 64.4596 64.1874C64.4587 64.1142 64.4434 64.0418 64.4146 63.9744C64.3857 63.9071 64.3439 63.846 64.2915 63.7948C64.2391 63.7436 64.1771 63.7032 64.1091 63.676L62.6161 63.076L64.1091 62.476C64.1772 62.4489 64.2393 62.4086 64.2918 62.3575C64.3443 62.3064 64.3862 62.2454 64.415 62.178C64.4439 62.1107 64.4592 62.0383 64.4601 61.965C64.461 61.8917 64.4474 61.819 64.4201 61.751H64.4191Z" fill="#ED9B9D"/>
<path d="M61.1141 61.3999C61.5687 61.3876 61.9998 61.1957 62.3132 60.8662C62.6266 60.5367 62.7966 60.0965 62.7862 59.6419C62.6914 58.6193 62.3481 57.6354 61.7862 56.7759C61.7195 56.657 61.6224 56.5581 61.5048 56.4892C61.3872 56.4203 61.2534 56.384 61.1172 56.384C60.9809 56.384 60.8471 56.4203 60.7295 56.4892C60.6119 56.5581 60.5148 56.657 60.4481 56.7759C59.8857 57.6363 59.5424 58.6213 59.4481 59.6449C59.4384 60.098 59.608 60.5365 59.92 60.8652C60.232 61.1939 60.6612 61.386 61.1141 61.3999V61.3999ZM61.1141 57.8879C61.421 58.427 61.6111 59.0246 61.6721 59.6419C61.6834 59.7217 61.6774 59.8029 61.6545 59.8802C61.6316 59.9574 61.5925 60.0289 61.5396 60.0897C61.4868 60.1505 61.4215 60.1993 61.3482 60.2327C61.2748 60.2661 61.1952 60.2834 61.1147 60.2834C61.0341 60.2834 60.9545 60.2661 60.8811 60.2327C60.8078 60.1993 60.7426 60.1505 60.6897 60.0897C60.6369 60.0289 60.5977 59.9574 60.5748 59.8802C60.5519 59.8029 60.5459 59.7217 60.5572 59.6419C60.618 59.0247 60.8077 58.4271 61.1141 57.8879V57.8879Z" fill="#ED9B9D"/>
<path d="M71.7821 47.2859C70.4957 46.9154 69.2895 46.3087 68.2251 45.4969C66.1959 43.902 63.6949 43.0256 61.1141 43.0049C58.5333 43.0256 56.0323 43.902 54.0031 45.4969C52.9387 46.3087 51.7325 46.9153 50.4461 47.2859C49.7932 47.4542 49.2206 47.8473 48.8288 48.3959C48.4369 48.9446 48.251 49.6138 48.3037 50.286C48.3563 50.9581 48.6442 51.5902 49.1167 52.0712C49.5891 52.5522 50.216 52.8513 50.8871 52.9159C51.1381 52.9379 51.4201 52.9519 51.7291 52.9519C52.8331 52.9484 53.93 52.7747 54.9811 52.4369V56.6649C54.9792 57.1821 54.9269 57.6978 54.8251 58.2049C53.9077 63.4616 53.4061 68.7824 53.3251 74.1179C53.3159 74.667 53.5094 75.2002 53.8686 75.6157C54.2278 76.0311 54.7274 76.2996 55.2721 76.3699C55.7308 76.4272 56.1928 76.4546 56.6551 76.4519H65.5741C66.0364 76.4546 66.4984 76.4272 66.9571 76.3699C67.5018 76.2996 68.0015 76.0311 68.3606 75.6157C68.7198 75.2002 68.9133 74.667 68.9041 74.1179C68.8229 68.7827 68.3213 63.4622 67.4041 58.2059C67.3021 57.6992 67.2496 57.1838 67.2471 56.6669V52.4369C68.2984 52.7753 69.3957 52.9493 70.5001 52.9529C70.8091 52.9529 71.0921 52.9389 71.3421 52.9179C72.0124 52.852 72.6381 52.5524 73.1095 52.0714C73.581 51.5905 73.8682 50.959 73.9208 50.2876C73.9734 49.6162 73.788 48.9477 73.3972 48.3992C73.0063 47.8507 72.4349 47.4573 71.7831 47.2879L71.7821 47.2859ZM65.4871 48.1219C65.4991 48.1559 65.5141 48.1889 65.5261 48.2219C65.6311 48.5219 65.7171 48.8219 65.7951 49.1369H56.4311C56.5091 48.8259 56.5951 48.5189 56.7001 48.2219C56.7121 48.1879 56.7271 48.1549 56.7391 48.1219C56.8586 47.7928 56.9965 47.4706 57.1521 47.1569C58.1591 45.1419 59.4961 44.1199 61.1141 44.1199C62.7321 44.1199 64.0681 45.1419 65.0721 47.1559C65.2284 47.4695 65.367 47.7917 65.4871 48.1209V48.1219ZM50.9811 51.8049C50.5494 51.7617 50.1493 51.5594 49.8585 51.2374C49.5677 50.9154 49.4072 50.4967 49.4081 50.0629C49.4037 49.6778 49.528 49.3023 49.7613 48.9959C49.9947 48.6895 50.3237 48.4699 50.6961 48.3719C52.1157 47.9724 53.448 47.3106 54.6241 46.4209C55.472 45.8153 56.3762 45.2925 57.3241 44.8599C57.2791 44.9119 57.2371 44.9719 57.1931 45.0229L57.1031 45.1349C56.9471 45.3349 56.7971 45.5469 56.6521 45.7739C56.6281 45.8119 56.6051 45.8529 56.5811 45.8919C56.4321 46.1339 56.2881 46.3869 56.1521 46.6579C55.9991 46.9649 55.8641 47.2849 55.7391 47.6119C55.7161 47.6709 55.6921 47.7299 55.6701 47.7899C55.5621 48.0899 55.4701 48.3999 55.3851 48.7139C55.3621 48.7989 55.3401 48.8809 55.3191 48.9689C55.2418 49.2929 55.1771 49.6219 55.1251 49.9559C55.1171 50.0119 55.1091 50.0679 55.1021 50.1229C55.0501 50.4959 55.0121 50.8739 54.9951 51.2559C53.7123 51.726 52.343 51.9132 50.9811 51.8049V51.8049ZM67.7881 74.1399C67.7915 74.4146 67.6937 74.681 67.5134 74.8883C67.333 75.0956 67.0827 75.2293 66.8101 75.2639C66.3998 75.315 65.9866 75.3394 65.5731 75.3369H56.6541C56.241 75.3394 55.8281 75.315 55.4181 75.2639C55.1454 75.2297 54.8949 75.0964 54.7143 74.8892C54.5337 74.6821 54.4358 74.4157 54.4391 74.1409C54.5193 68.8702 55.0141 63.6139 55.9191 58.4209C56.0346 57.843 56.0939 57.2552 56.0961 56.6659V51.8649C56.0961 51.7949 56.0961 51.7259 56.1021 51.6559C56.1091 51.2559 56.1371 50.8619 56.1821 50.4769C56.1821 50.4479 56.1901 50.4189 56.1941 50.3899C56.2001 50.3429 56.2121 50.2989 56.2181 50.2529H66.0081C66.0151 50.2989 66.0261 50.3429 66.0321 50.3899C66.0321 50.4189 66.0401 50.4459 66.0441 50.4769C66.0891 50.8619 66.1171 51.2539 66.1241 51.6559C66.1241 51.7259 66.1301 51.7949 66.1301 51.8649V56.6649C66.1324 57.2536 66.1916 57.8406 66.3071 58.4179C67.2123 63.6113 67.7071 68.8678 67.7871 74.1389L67.7881 74.1399ZM71.2441 51.8049C69.8816 51.913 68.5119 51.7246 67.2291 51.2529C67.2111 50.8709 67.1731 50.4929 67.1221 50.1199C67.1151 50.0639 67.1071 50.0079 67.0991 49.9529C67.0478 49.6195 66.9831 49.2905 66.9051 48.9659C66.8841 48.8799 66.8621 48.7949 66.8391 48.7109C66.7561 48.3969 66.6621 48.0879 66.5541 47.7869C66.5321 47.7269 66.5081 47.6679 66.4851 47.6089C66.3611 47.2819 66.2261 46.9619 66.0731 46.6549C65.9371 46.3829 65.7941 46.1309 65.6441 45.8889C65.6201 45.8499 65.5971 45.8089 65.5731 45.7709C65.4291 45.5439 65.2781 45.3319 65.1231 45.1319L65.0331 45.0199C64.9891 44.9639 64.9471 44.9079 64.9031 44.8569C65.851 45.2896 66.7551 45.8124 67.6031 46.4179C68.7776 47.3073 70.1082 47.969 71.5261 48.3689C71.8996 48.466 72.2299 48.6854 72.4642 48.992C72.6986 49.2987 72.8235 49.675 72.8191 50.0609C72.8205 50.4951 72.6602 50.9142 72.3694 51.2366C72.0786 51.5591 71.6781 51.7616 71.2461 51.8049H71.2441Z" fill="#ED9B9D"/>
<defs>
<filter color-interpolation-filters="sRGB" filterUnits="userSpaceOnUse" height="123" id="filter0_d" width="123" x="0" y="0">
<feFlood flood-opacity="0" result="BackgroundImageFix"/>
<feColorMatrix in="SourceAlpha" type="matrix" values="0 0 0 0 0 0 0 0 0 0 0 0 0 0 0 0 0 0 127 0"/>
<feOffset dy="-1"/>
<feGaussianBlur stdDeviation="13"/>
<feColorMatrix type="matrix" values="0 0 0 0 0.772549 0 0 0 0 0.780392 0 0 0 0 0.796078 0 0 0 0.2 0"/>
<feBlend in2="BackgroundImageFix" mode="normal" result="effect1_dropShadow"/>
<feBlend in="SourceGraphic" in2="effect1_dropShadow" mode="normal" result="shape"/>
</filter>
</defs>
</svg>
