<svg xmlns="http://www.w3.org/2000/svg" xmlns:xlink="http://www.w3.org/1999/xlink" width="149" height="149" viewBox="0 0 149 149">
  <defs>
    <filter id="Elipse_1624" x="0" y="0" width="149" height="149" filterUnits="userSpaceOnUse">
      <feOffset dy="-1" input="SourceAlpha"/>
      <feGaussianBlur stdDeviation="13" result="blur"/>
      <feFlood flood-color="#c5c7cb" flood-opacity="0.2"/>
      <feComposite operator="in" in2="blur"/>
      <feComposite in="SourceGraphic"/>
    </filter>
  </defs>
  <g id="ICON_7" data-name="ICON 7" transform="translate(39 40)">
    <g transform="matrix(1, 0, 0, 1, -39, -40)" filter="url(#Elipse_1624)">
      <circle id="Elipse_1624-2" data-name="Elipse 1624" cx="35.5" cy="35.5" r="35.5" transform="translate(39 40)" fill="#fff"/>
    </g>
    <g id="_003-open-book" data-name="003-open-book" transform="translate(19.852 17.618)">
      <g id="Grupo_9001" data-name="Grupo 9001" transform="translate(0 0)">
        <g id="Grupo_9000" data-name="Grupo 9000">
          <path id="Trazado_11229" data-name="Trazado 11229" d="M290.185,199.014a.5.5,0,0,0,.678.22,43.173,43.173,0,0,1,4.456-1.983.5.5,0,0,0-.3-.961,43.194,43.194,0,0,0-4.61,2.046A.5.5,0,0,0,290.185,199.014Z" transform="translate(-273.006 -184.682)" fill="#ed9b9d"/>
          <path id="Trazado_11230" data-name="Trazado 11230" d="M290.634,96.89a.5.5,0,0,0,.228-.055,43.182,43.182,0,0,1,4.456-1.983.5.5,0,0,0-.3-.961,43.2,43.2,0,0,0-4.61,2.046.5.5,0,0,0,.229.952Z" transform="translate(-273.006 -88.327)" fill="#ed9b9d"/>
          <path id="Trazado_11231" data-name="Trazado 11231" d="M29.718,7.555a.5.5,0,0,0-.5.5V27.7A1.513,1.513,0,0,1,27.7,29.213H15.616V28.054a14.843,14.843,0,0,1,4.533-.856,25.979,25.979,0,0,1,7.4.982.5.5,0,0,0,.662-.478V5.541a.5.5,0,0,0-.394-.492s-.395-.088-1.07-.212a.5.5,0,0,0-.182.991c.257.047.473.089.639.122V27.032a28.445,28.445,0,0,0-7.051-.842,15.823,15.823,0,0,0-5.017.965,11.8,11.8,0,0,0-4.553-.965,33.941,33.941,0,0,0-7.555.863V5.93a33.153,33.153,0,0,1,7.555-.893,10.92,10.92,0,0,1,4.029.83v19.82a.5.5,0,0,0,.763.432,57.664,57.664,0,0,1,9.469-4.487.5.5,0,0,0,.345-.478V.5A.5.5,0,0,0,24.5.032a53.578,53.578,0,0,0-8.148,4.074.5.5,0,1,0,.534.854,53.833,53.833,0,0,1,7.288-3.72V20.794a56.444,56.444,0,0,0-8.562,4.019V5.541a.5.5,0,0,0-.279-.451,11.663,11.663,0,0,0-4.758-1.06,32.689,32.689,0,0,0-8.2,1.027.5.5,0,0,0-.365.484V27.7a.5.5,0,0,0,.5.5.5.5,0,0,0,.138-.02,32.354,32.354,0,0,1,7.921-.988,10.9,10.9,0,0,1,4.029.831v1.184H2.52A1.513,1.513,0,0,1,1.009,27.7V8.059A.5.5,0,0,0,0,8.059V27.7A2.521,2.521,0,0,0,2.52,30.22H27.7A2.521,2.521,0,0,0,30.222,27.7V8.059A.5.5,0,0,0,29.718,7.555Z" transform="translate(-0.002 0)" fill="#ed9b9d"/>
          <path id="Trazado_11232" data-name="Trazado 11232" d="M290.185,147.813a.5.5,0,0,0,.678.22,43.187,43.187,0,0,1,4.456-1.983.5.5,0,0,0-.3-.961,43.187,43.187,0,0,0-4.61,2.046A.5.5,0,0,0,290.185,147.813Z" transform="translate(-273.006 -136.504)" fill="#ed9b9d"/>
          <path id="Trazado_11233" data-name="Trazado 11233" d="M290.185,250.213a.5.5,0,0,0,.678.22,43.168,43.168,0,0,1,4.456-1.983.5.5,0,0,0-.3-.961,43.2,43.2,0,0,0-4.61,2.046A.5.5,0,0,0,290.185,250.213Z" transform="translate(-273.006 -232.86)" fill="#ed9b9d"/>
          <path id="Trazado_11234" data-name="Trazado 11234" d="M92.5,153.923a15.985,15.985,0,0,0-6.793.24.5.5,0,0,0,.13.99.512.512,0,0,0,.131-.017,15.179,15.179,0,0,1,6.3-.232.5.5,0,1,0,.23-.981Z" transform="translate(-80.297 -144.576)" fill="#ed9b9d"/>
          <path id="Trazado_11235" data-name="Trazado 11235" d="M92.5,205.127a16,16,0,0,0-6.793.24.5.5,0,0,0,.13.99.512.512,0,0,0,.131-.017,15.179,15.179,0,0,1,6.3-.232.5.5,0,1,0,.23-.981Z" transform="translate(-80.297 -192.758)" fill="#ed9b9d"/>
          <path id="Trazado_11236" data-name="Trazado 11236" d="M290.185,301.414a.5.5,0,0,0,.678.22,43.157,43.157,0,0,1,4.456-1.983.5.5,0,0,0-.3-.961,43.218,43.218,0,0,0-4.61,2.046A.5.5,0,0,0,290.185,301.414Z" transform="translate(-273.006 -281.038)" fill="#ed9b9d"/>
          <path id="Trazado_11237" data-name="Trazado 11237" d="M92.5,256.325a15.985,15.985,0,0,0-6.793.24.5.5,0,0,0,.13.991.512.512,0,0,0,.131-.018,15.179,15.179,0,0,1,6.3-.232.5.5,0,1,0,.23-.981Z" transform="translate(-80.297 -240.934)" fill="#ed9b9d"/>
          <path id="Trazado_11238" data-name="Trazado 11238" d="M92.5,358.723a15.982,15.982,0,0,0-6.793.24.5.5,0,1,0,.261.973,15.181,15.181,0,0,1,6.3-.232.5.5,0,1,0,.23-.981Z" transform="translate(-80.297 -337.288)" fill="#ed9b9d"/>
          <path id="Trazado_11239" data-name="Trazado 11239" d="M92.5,307.522a15.974,15.974,0,0,0-6.793.24.5.5,0,1,0,.261.973,15.179,15.179,0,0,1,6.3-.232.5.5,0,1,0,.23-.981Z" transform="translate(-80.297 -289.108)" fill="#ed9b9d"/>
        </g>
      </g>
    </g>
  </g>
</svg>
