<svg xmlns="http://www.w3.org/2000/svg" xmlns:xlink="http://www.w3.org/1999/xlink" width="149" height="149" viewBox="0 0 149 149">
  <defs>
    <filter id="Elipse_1622" x="0" y="0" width="149" height="149" filterUnits="userSpaceOnUse">
      <feOffset dy="-1" input="SourceAlpha"/>
      <feGaussianBlur stdDeviation="13" result="blur"/>
      <feFlood flood-color="#c5c7cb" flood-opacity="0.2"/>
      <feComposite operator="in" in2="blur"/>
      <feComposite in="SourceGraphic"/>
    </filter>
  </defs>
  <g id="ICON_5" data-name="ICON 5" transform="translate(39 40)">
    <g transform="matrix(1, 0, 0, 1, -39, -40)" filter="url(#Elipse_1622)">
      <circle id="Elipse_1622-2" data-name="Elipse 1622" cx="35.5" cy="35.5" r="35.5" transform="translate(39 40)" fill="#fff"/>
    </g>
    <g id="_001-dress" data-name="001-dress" transform="translate(22.527 17.618)">
      <g id="Grupo_8995" data-name="Grupo 8995" transform="translate(0)">
        <g id="Grupo_8994" data-name="Grupo 8994">
          <path id="Trazado_11223" data-name="Trazado 11223" d="M85.77,29.5a30.071,30.071,0,0,0-2.542-7.893,21.034,21.034,0,0,0-3.312-4.9,14.8,14.8,0,0,0-3.474-2.853,17.176,17.176,0,0,0,2.792-8.134,2.967,2.967,0,0,0-1.2-2.339V.668a.668.668,0,0,0-1.337,0V2.734a3.966,3.966,0,0,0-1-.127,3.663,3.663,0,0,0-3.034,1.518,3.663,3.663,0,0,0-3.034-1.518,3.967,3.967,0,0,0-1,.128V.668a.668.668,0,1,0-1.337,0V3.387a2.966,2.966,0,0,0-1.2,2.336,17.178,17.178,0,0,0,2.8,8.14,14.818,14.818,0,0,0-3.462,2.847,21.037,21.037,0,0,0-3.312,4.9A30.068,30.068,0,0,0,59.574,29.5,1.926,1.926,0,0,0,60.8,31.665l2.29.845q.321.118.644.228l.021.007a27.652,27.652,0,0,0,5.97,1.317.671.671,0,0,0,.1.01A27.636,27.636,0,0,0,82.251,32.51l2.29-.845A1.926,1.926,0,0,0,85.77,29.5ZM67.43,5.724a1.683,1.683,0,0,1,.844-1.4.662.662,0,0,0,.067-.041,2.55,2.55,0,0,1,1.288-.338,2.06,2.06,0,0,1,2.195,1.669.842.842,0,0,0,1.679,0A2.06,2.06,0,0,1,75.7,3.944a2.553,2.553,0,0,1,1.272.329.666.666,0,0,0,.094.057A1.679,1.679,0,0,1,77.9,5.723a16.418,16.418,0,0,1-2.781,7.72l-.1.148a5.4,5.4,0,0,1-1.6.487,5.957,5.957,0,0,0,.422-.635,5.021,5.021,0,0,0,.472-1.093.668.668,0,1,0-1.283-.375,4.175,4.175,0,0,1-.814,1.467,4.016,4.016,0,0,1-.407.426.666.666,0,0,0-.141.167,5.391,5.391,0,0,1-1.35-.445l-.1-.148A16.418,16.418,0,0,1,67.43,5.724ZM84.078,30.411l-2.29.845c-.108.04-.217.078-.326.116a28.352,28.352,0,0,0-3.056-7.894.668.668,0,1,0-1.135.707,27.553,27.553,0,0,1,2.913,7.6,26.356,26.356,0,0,1-9.676,1,8.082,8.082,0,0,1,.775-3.17.668.668,0,1,0-1.2-.588,9.409,9.409,0,0,0-.906,3.615,26.307,26.307,0,0,1-4.46-1c.331-1.892,1.632-8.217,4.721-11.762a.668.668,0,0,0-1.008-.878c-3.235,3.712-4.6,9.97-5,12.2l-2.17-.8a.592.592,0,0,1-.377-.664C62.047,23.47,64.5,19.721,66.353,17.68a13.047,13.047,0,0,1,3.51-2.824,6.735,6.735,0,0,0,5.61,0c1.275.657,7,4.161,8.982,14.9A.592.592,0,0,1,84.078,30.411Z" transform="translate(-59.541)" fill="#ed9b9d"/>
        </g>
      </g>
      <g id="Grupo_8997" data-name="Grupo 8997" transform="translate(15.881 20.769)">
        <g id="Grupo_8996" data-name="Grupo 8996">
          <path id="Trazado_11224" data-name="Trazado 11224" d="M298.475,311.283a.677.677,0,0,0-.038-.125.663.663,0,0,0-.061-.116.64.64,0,0,0-.083-.1.674.674,0,0,0-.6-.183.7.7,0,0,0-.126.039.677.677,0,0,0-.115.061.635.635,0,0,0-.1.083.68.68,0,0,0-.084.1.659.659,0,0,0-.062.116.674.674,0,0,0-.038.125.674.674,0,0,0,0,.261.67.67,0,0,0,.039.125.7.7,0,0,0,.061.116.68.68,0,0,0,.185.185.725.725,0,0,0,.115.061.645.645,0,0,0,.126.038.645.645,0,0,0,.261,0,.625.625,0,0,0,.125-.038.706.706,0,0,0,.116-.061.685.685,0,0,0,.1-.084.635.635,0,0,0,.083-.1.658.658,0,0,0,.061-.116.683.683,0,0,0,.038-.125.648.648,0,0,0,0-.261Z" transform="translate(-297.152 -310.745)" fill="#ed9b9d"/>
        </g>
      </g>
      <g id="Grupo_8999" data-name="Grupo 8999" transform="translate(14.128 9.568)">
        <g id="Grupo_8998" data-name="Grupo 8998">
          <path id="Trazado_11225" data-name="Trazado 11225" d="M272.255,143.694a.7.7,0,0,0-.038-.125.684.684,0,0,0-.061-.115.638.638,0,0,0-.083-.1.675.675,0,0,0-.6-.183.709.709,0,0,0-.125.038.674.674,0,0,0-.115.061.669.669,0,0,0-.247.3.705.705,0,0,0-.038.125.671.671,0,0,0-.013.131.664.664,0,0,0,.013.13.674.674,0,0,0,.038.125.683.683,0,0,0,.061.116.715.715,0,0,0,.084.1.643.643,0,0,0,.1.083.687.687,0,0,0,.115.061.719.719,0,0,0,.125.038.671.671,0,0,0,.131.013.658.658,0,0,0,.13-.013.683.683,0,0,0,.125-.038.673.673,0,0,0,.116-.061.641.641,0,0,0,.1-.083.665.665,0,0,0,.083-.1.688.688,0,0,0,.061-.116.666.666,0,0,0,.038-.125.658.658,0,0,0,.013-.13A.67.67,0,0,0,272.255,143.694Z" transform="translate(-270.932 -143.157)" fill="#ed9b9d"/>
        </g>
      </g>
    </g>
  </g>
</svg>
