<svg fill="none" height="123" viewBox="0 0 123 123" width="123" xmlns="http://www.w3.org/2000/svg">
<g filter="url(#filter0_d)">
<path d="M61.5 98C81.1061 98 97 82.1061 97 62.5C97 42.8939 81.1061 27 61.5 27C41.8939 27 26 42.8939 26 62.5C26 82.1061 41.8939 98 61.5 98Z" fill="white"/>
</g>
<path d="M63.0312 58.95C63.0609 59.0093 63.102 59.0622 63.1523 59.1054C63.2026 59.1487 63.261 59.1815 63.3241 59.202C63.3872 59.2225 63.4538 59.2302 63.5199 59.2247C63.586 59.2192 63.6504 59.2006 63.7092 59.17C65.156 58.4256 66.6437 57.7635 68.1652 57.187C68.2926 57.1472 68.3991 57.0584 68.461 56.9402C68.523 56.822 68.5355 56.6839 68.4957 56.5565C68.4559 56.4291 68.3672 56.3227 68.2489 56.2607C68.1307 56.1987 67.9927 56.1862 67.8652 56.226C66.29 56.8176 64.7507 57.5008 63.2552 58.272C63.1955 58.3013 63.1423 58.3422 63.0986 58.3924C63.0549 58.4425 63.0217 58.5008 63.0008 58.564C62.98 58.6271 62.9719 58.6937 62.9771 58.76C62.9823 58.8263 63.0007 58.8909 63.0312 58.95Z" fill="#ED9B9D"/>
<path d="M63.4801 53.1808C63.5593 53.1808 63.6375 53.162 63.708 53.1258C65.1548 52.3814 66.6425 51.7193 68.164 51.1428C68.2915 51.103 68.3979 51.0143 68.4599 50.896C68.5219 50.7778 68.5343 50.6397 68.4945 50.5123C68.4548 50.3849 68.366 50.2785 68.2478 50.2165C68.1295 50.1545 67.9915 50.142 67.8641 50.1818C66.2889 50.7734 64.7495 51.4566 63.254 52.2278C63.15 52.2768 63.0661 52.3602 63.0164 52.4639C62.9667 52.5676 62.9543 52.6852 62.9812 52.797C63.008 52.9088 63.0727 53.0079 63.1641 53.0776C63.2555 53.1473 63.3681 53.1834 63.483 53.1798L63.4801 53.1808Z" fill="#ED9B9D"/>
<path d="M75.5681 52.1729C75.4355 52.1729 75.3083 52.2256 75.2145 52.3193C75.1208 52.4131 75.0681 52.5403 75.0681 52.6729V72.3179C75.0681 72.517 75.0288 72.7142 74.9525 72.8981C74.8761 73.082 74.7642 73.249 74.6232 73.3895C74.4822 73.5301 74.3148 73.6414 74.1306 73.7172C73.9465 73.7929 73.7492 73.8316 73.5501 73.8309H61.4661V72.6719C62.9233 72.1521 64.4527 71.8633 65.9991 71.8159C68.5002 71.7853 70.9926 72.116 73.3991 72.7979C73.4748 72.8238 73.5556 72.8312 73.6347 72.8194C73.7138 72.8077 73.789 72.7771 73.8538 72.7303C73.9187 72.6834 73.9714 72.6217 74.0074 72.5503C74.0435 72.4789 74.0619 72.3999 74.0611 72.3199V50.1589C74.0619 50.0441 74.0231 49.9326 73.9514 49.843C73.8796 49.7534 73.7793 49.6912 73.6671 49.6669C73.6671 49.6669 73.2721 49.5789 72.5971 49.4549C72.4657 49.4308 72.3301 49.4598 72.2201 49.5357C72.1101 49.6115 72.0347 49.728 72.0106 49.8594C71.9865 49.9908 72.0155 50.1264 72.0914 50.2364C72.1672 50.3464 72.2837 50.4218 72.4151 50.4459C72.6721 50.4929 72.8881 50.5349 73.0541 50.5679V71.6499C70.7482 71.0758 68.3794 70.7929 66.0031 70.8079C64.2895 70.8557 62.5951 71.1816 60.9861 71.7729C59.5475 71.1522 57.9998 70.8241 56.4331 70.8079C53.8904 70.8117 51.3562 71.1011 48.8781 71.6709V50.5479C51.3538 49.9613 53.8888 49.6617 56.4331 49.6549C57.8166 49.6738 59.1838 49.9555 60.4621 50.4849V70.3049C60.4609 70.3945 60.4838 70.4828 60.5284 70.5606C60.573 70.6383 60.6377 70.7026 60.7157 70.7468C60.7937 70.7909 60.8821 70.8133 60.9718 70.8116C61.0614 70.8099 61.1489 70.7841 61.2251 70.7369C64.2387 68.957 67.4081 67.4551 70.6941 66.2499C70.7948 66.2171 70.8825 66.1531 70.9445 66.0672C71.0065 65.9812 71.0397 65.8779 71.0391 65.7719V45.1179C71.0399 45.0355 71.0204 44.9541 70.9822 44.881C70.944 44.808 70.8883 44.7455 70.8201 44.6992C70.7519 44.6529 70.6733 44.6241 70.5913 44.6155C70.5093 44.6069 70.4264 44.6187 70.3501 44.6499C67.5234 45.7741 64.7975 47.137 62.2021 48.7239C62.146 48.759 62.0974 48.8047 62.059 48.8586C62.0206 48.9124 61.9932 48.9733 61.9784 49.0378C61.9635 49.1022 61.9615 49.1689 61.9724 49.2342C61.9834 49.2994 62.007 49.3618 62.0421 49.4179C62.0772 49.474 62.1229 49.5226 62.1768 49.561C62.2306 49.5994 62.2915 49.6268 62.356 49.6416C62.4204 49.6565 62.4871 49.6585 62.5524 49.6476C62.6176 49.6366 62.68 49.613 62.7361 49.5779C65.0675 48.1548 67.5039 46.9112 70.0241 45.8579V65.4119C67.0627 66.5097 64.1986 67.854 61.4621 69.4309V50.1589C61.4626 50.0651 61.4367 49.9731 61.3873 49.8934C61.338 49.8136 61.2672 49.7493 61.1831 49.7079C59.6895 49.0234 58.0681 48.6621 56.4251 48.6479C53.6593 48.642 50.904 48.987 48.2251 49.6749C48.1196 49.7045 48.0268 49.7678 47.9609 49.8553C47.8949 49.9427 47.8595 50.0494 47.8601 50.1589V72.3179C47.8601 72.4505 47.9128 72.5777 48.0065 72.6715C48.1003 72.7652 48.2275 72.8179 48.3601 72.8179C48.4068 72.8177 48.4533 72.811 48.4981 72.7979C51.0875 72.1429 53.7481 71.811 56.4191 71.8099C57.8027 71.8287 59.17 72.1107 60.4481 72.6409V73.8249H48.3701C47.9702 73.8244 47.5868 73.6656 47.3037 73.3832C47.0205 73.1008 46.8607 72.7178 46.8591 72.3179V52.6769C46.8591 52.5431 46.8059 52.4148 46.7113 52.3202C46.6167 52.2256 46.4884 52.1724 46.3546 52.1724C46.2208 52.1724 46.0925 52.2256 45.9979 52.3202C45.9033 52.4148 45.8501 52.5431 45.8501 52.6769V72.3179C45.8504 72.9862 46.1159 73.627 46.5885 74.0995C47.061 74.5721 47.7018 74.8376 48.3701 74.8379H73.5501C73.8812 74.838 74.209 74.773 74.5149 74.6464C74.8208 74.5198 75.0988 74.3342 75.333 74.1002C75.5672 73.8662 75.753 73.5884 75.8798 73.2826C76.0066 72.9768 76.072 72.649 76.0721 72.3179V52.6769C76.0726 52.6106 76.06 52.5448 76.0348 52.4834C76.0097 52.422 75.9726 52.3662 75.9257 52.3193C75.8788 52.2724 75.823 52.2353 75.7616 52.2102C75.7002 52.185 75.6344 52.1724 75.5681 52.1729V52.1729Z" fill="#ED9B9D"/>
<path d="M63.0312 55.9268C63.0609 55.9861 63.102 56.039 63.1523 56.0823C63.2026 56.1255 63.261 56.1584 63.3241 56.1788C63.3872 56.1993 63.4538 56.207 63.5199 56.2015C63.586 56.196 63.6504 56.1774 63.7092 56.1468C65.156 55.4024 66.6437 54.7403 68.1652 54.1638C68.2926 54.124 68.3991 54.0352 68.461 53.917C68.523 53.7987 68.5355 53.6607 68.4957 53.5333C68.4559 53.4059 68.3672 53.2995 68.2489 53.2375C68.1307 53.1755 67.9927 53.163 67.8652 53.2028C66.29 53.7944 64.7507 54.4776 63.2552 55.2488C63.1955 55.2781 63.1423 55.319 63.0986 55.3692C63.0549 55.4193 63.0217 55.4776 63.0008 55.5408C62.98 55.6039 62.9719 55.6706 62.9771 55.7368C62.9823 55.8031 63.0007 55.8677 63.0312 55.9268Z" fill="#ED9B9D"/>
<path d="M63.0312 61.971C63.0609 62.0303 63.102 62.0832 63.1523 62.1264C63.2026 62.1697 63.261 62.2025 63.3241 62.223C63.3872 62.2435 63.4538 62.2512 63.5199 62.2457C63.586 62.2402 63.6504 62.2216 63.7092 62.191C65.156 61.4465 66.6437 60.7845 68.1652 60.208C68.2926 60.1682 68.3991 60.0794 68.461 59.9612C68.523 59.843 68.5355 59.7049 68.4957 59.5775C68.4559 59.4501 68.3672 59.3436 68.2489 59.2817C68.1307 59.2197 67.9927 59.2072 67.8652 59.247C66.29 59.8386 64.7507 60.5218 63.2552 61.293C63.1955 61.3223 63.1423 61.3632 63.0986 61.4133C63.0549 61.4635 63.0217 61.5218 63.0008 61.585C62.98 61.6481 62.9719 61.7147 62.9771 61.781C62.9823 61.8473 63.0007 61.9119 63.0312 61.971Z" fill="#ED9B9D"/>
<path d="M58.0549 53.9649C55.7995 53.557 53.4828 53.6389 51.2619 54.2049C51.1362 54.2285 51.0243 54.2993 50.9492 54.4028C50.8742 54.5063 50.8416 54.6347 50.8583 54.7615C50.8749 54.8882 50.9395 55.0038 51.0387 55.0844C51.138 55.1651 51.2644 55.2046 51.3919 55.1949C51.4361 55.1949 51.4801 55.1892 51.5229 55.1779C53.5835 54.6605 55.7298 54.5815 57.8229 54.9459C57.8873 54.961 57.954 54.9633 58.0193 54.9526C58.0846 54.9419 58.1472 54.9185 58.2034 54.8836C58.2596 54.8487 58.3084 54.8031 58.347 54.7494C58.3856 54.6957 58.4133 54.6348 58.4284 54.5704C58.4435 54.506 58.4457 54.4393 58.435 54.374C58.4243 54.3087 58.4009 54.2461 58.366 54.1899C58.3311 54.1337 58.2855 54.0849 58.2318 54.0463C58.1781 54.0077 58.1173 53.98 58.0529 53.9649H58.0549Z" fill="#ED9B9D"/>
<path d="M58.0549 56.9868C55.7995 56.5794 53.4829 56.6612 51.2619 57.2268C51.1362 57.2504 51.0243 57.3212 50.9492 57.4247C50.8742 57.5282 50.8416 57.6566 50.8583 57.7833C50.8749 57.9101 50.9395 58.0257 51.0387 58.1063C51.138 58.1869 51.2644 58.2265 51.3919 58.2168C51.4361 58.2168 51.4801 58.2111 51.5229 58.1998C53.5835 57.6824 55.7298 57.6034 57.8229 57.9678C57.8873 57.9829 57.954 57.9852 58.0193 57.9745C58.0846 57.9638 58.1472 57.9403 58.2034 57.9055C58.2596 57.8706 58.3084 57.825 58.347 57.7713C58.3856 57.7175 58.4133 57.6567 58.4284 57.5923C58.4435 57.5279 58.4457 57.4611 58.435 57.3958C58.4243 57.3306 58.4009 57.268 58.366 57.2118C58.3311 57.1556 58.2855 57.1068 58.2318 57.0681C58.1781 57.0295 58.1173 57.0019 58.0529 56.9868H58.0549Z" fill="#ED9B9D"/>
<path d="M63.0312 64.9939C63.0609 65.0533 63.102 65.1061 63.1523 65.1494C63.2026 65.1927 63.261 65.2255 63.3241 65.246C63.3872 65.2664 63.4538 65.2742 63.5199 65.2687C63.586 65.2632 63.6504 65.2446 63.7092 65.2139C65.156 64.4695 66.6437 63.8074 68.1652 63.2309C68.2926 63.1912 68.3991 63.1024 68.461 62.9841C68.523 62.8659 68.5355 62.7279 68.4957 62.6004C68.4559 62.473 68.3672 62.3666 68.2489 62.3046C68.1307 62.2426 67.9927 62.2302 67.8652 62.2699C66.29 62.8616 64.7507 63.5448 63.2552 64.3159C63.1955 64.3452 63.1423 64.3862 63.0986 64.4363C63.0549 64.4864 63.0217 64.5448 63.0008 64.6079C62.98 64.671 62.9719 64.7377 62.9771 64.804C62.9823 64.8703 63.0007 64.9348 63.0312 64.9939V64.9939Z" fill="#ED9B9D"/>
<path d="M58.0549 60.0089C55.7996 59.601 53.4829 59.6828 51.2619 60.2489C51.1338 60.2699 51.0189 60.3399 50.9414 60.4441C50.864 60.5483 50.8301 60.6786 50.847 60.8073C50.8639 60.9361 50.9302 61.0532 51.0319 61.1339C51.1336 61.2146 51.2627 61.2526 51.3919 61.2399C51.4362 61.2396 51.4802 61.2335 51.5229 61.2219C53.5836 60.7045 55.7298 60.6254 57.8229 60.9899C57.8874 61.005 57.9541 61.0072 58.0194 60.9965C58.0847 60.9859 58.1472 60.9624 58.2035 60.9275C58.2597 60.8927 58.3085 60.8471 58.3471 60.7933C58.3857 60.7396 58.4133 60.6788 58.4284 60.6144C58.4435 60.55 58.4458 60.4832 58.4351 60.4179C58.4244 60.3526 58.401 60.2901 58.3661 60.2339C58.3312 60.1776 58.2856 60.1288 58.2319 60.0902C58.1782 60.0516 58.1174 60.024 58.0529 60.0089H58.0549Z" fill="#ED9B9D"/>
<path d="M58.0549 66.0529C55.7995 65.6449 53.4828 65.7267 51.2619 66.2929C51.1328 66.3275 51.0229 66.412 50.9561 66.5277C50.8893 66.6434 50.8713 66.7808 50.9059 66.9099C50.9405 67.0389 51.0249 67.1489 51.1406 67.2157C51.2564 67.2824 51.3938 67.3005 51.5229 67.2659C53.5835 66.7486 55.7298 66.6695 57.8229 67.0339C57.8873 67.049 57.954 67.0512 58.0193 67.0406C58.0846 67.0299 58.1472 67.0064 58.2034 66.9716C58.2596 66.9367 58.3084 66.8911 58.347 66.8373C58.3856 66.7836 58.4133 66.7228 58.4284 66.6584C58.4435 66.594 58.4457 66.5272 58.435 66.4619C58.4243 66.3966 58.4009 66.3341 58.366 66.2779C58.3312 66.2216 58.2856 66.1728 58.2318 66.1342C58.1781 66.0956 58.1173 66.068 58.0529 66.0529H58.0549Z" fill="#ED9B9D"/>
<path d="M58.0549 63.0318C55.7995 62.6236 53.4828 62.7054 51.2619 63.2718C51.1328 63.3064 51.0229 63.3909 50.9561 63.5066C50.8893 63.6223 50.8713 63.7598 50.9059 63.8888C50.9405 64.0179 51.0249 64.1279 51.1406 64.1946C51.2564 64.2614 51.3938 64.2794 51.5229 64.2448C53.5835 63.7274 55.7298 63.6484 57.8229 64.0128C57.8873 64.0279 57.954 64.0302 58.0193 64.0195C58.0846 64.0088 58.1472 63.9853 58.2034 63.9505C58.2596 63.9156 58.3084 63.87 58.347 63.8163C58.3856 63.7626 58.4133 63.7017 58.4284 63.6373C58.4435 63.5729 58.4457 63.5062 58.435 63.4409C58.4243 63.3756 58.4009 63.313 58.366 63.2568C58.3312 63.2006 58.2856 63.1518 58.2318 63.1132C58.1781 63.0746 58.1173 63.0469 58.0529 63.0318H58.0549Z" fill="#ED9B9D"/>
<defs>
<filter color-interpolation-filters="sRGB" filterUnits="userSpaceOnUse" height="123" id="filter0_d" width="123" x="0" y="0">
<feFlood flood-opacity="0" result="BackgroundImageFix"/>
<feColorMatrix in="SourceAlpha" type="matrix" values="0 0 0 0 0 0 0 0 0 0 0 0 0 0 0 0 0 0 127 0"/>
<feOffset dy="-1"/>
<feGaussianBlur stdDeviation="13"/>
<feColorMatrix type="matrix" values="0 0 0 0 0.772549 0 0 0 0 0.780392 0 0 0 0 0.796078 0 0 0 0.2 0"/>
<feBlend in2="BackgroundImageFix" mode="normal" result="effect1_dropShadow"/>
<feBlend in="SourceGraphic" in2="effect1_dropShadow" mode="normal" result="shape"/>
</filter>
</defs>
</svg>
