<svg fill="none" height="123" viewBox="0 0 123 123" width="123" xmlns="http://www.w3.org/2000/svg">
<g filter="url(#filter0_d)">
<path d="M61.5 98C81.1061 98 97 82.1061 97 62.5C97 42.8939 81.1061 27 61.5 27C41.8939 27 26 42.8939 26 62.5C26 82.1061 41.8939 98 61.5 98Z" fill="white"/>
</g>
<path d="M74.7559 74.1179C74.2772 71.3822 73.4217 68.7259 72.2139 66.2249C71.3462 64.4438 70.2312 62.7941 68.9019 61.3249C67.896 60.2026 66.7244 59.2405 65.4279 58.4719C67.0333 56.0412 67.9941 53.2422 68.2199 50.3379C68.2131 49.8821 68.1012 49.4339 67.8931 49.0283C67.685 48.6226 67.3862 48.2704 67.0199 47.9989V45.2859C67.0199 45.1086 66.9495 44.9386 66.8241 44.8132C66.6988 44.6879 66.5287 44.6174 66.3514 44.6174C66.1741 44.6174 66.0041 44.6879 65.8787 44.8132C65.7534 44.9386 65.6829 45.1086 65.6829 45.2859V47.3519C65.3564 47.2672 65.0203 47.2246 64.6829 47.2249C64.0923 47.2146 63.5079 47.3472 62.9796 47.6115C62.4513 47.8758 61.9948 48.264 61.6489 48.7429C61.3031 48.264 60.8466 47.8758 60.3183 47.6115C59.79 47.3472 59.2056 47.2146 58.6149 47.2249C58.2775 47.2249 57.9415 47.2679 57.6149 47.3529V45.2859C57.6149 45.1086 57.5445 44.9386 57.4191 44.8132C57.2938 44.6879 57.1237 44.6174 56.9464 44.6174C56.7691 44.6174 56.5991 44.6879 56.4737 44.8132C56.3484 44.9386 56.2779 45.1086 56.2779 45.2859V48.0049C55.912 48.276 55.6134 48.6278 55.4053 49.0329C55.1972 49.438 55.0852 49.8856 55.0779 50.3409C55.3053 53.2479 56.2689 56.0492 57.8779 58.4809C56.5862 59.2489 55.4189 60.2089 54.4159 61.3279C53.0867 62.7972 51.9717 64.4468 51.1039 66.2279C49.8957 68.7279 49.0396 71.3831 48.5599 74.1179C48.4753 74.5655 48.552 75.0286 48.7764 75.425C49.0009 75.8213 49.3586 76.1253 49.7859 76.2829L52.0759 77.1279C52.2899 77.2066 52.5046 77.2826 52.7199 77.3559L52.7409 77.3629C54.6761 78.0212 56.6784 78.4629 58.7109 78.6799C58.744 78.6858 58.7774 78.6891 58.8109 78.6899C63.0179 79.127 67.269 78.5926 71.2369 77.1279L73.5269 76.2829C73.9549 76.1259 74.3132 75.8221 74.5382 75.4257C74.7633 75.0293 74.8404 74.5659 74.7559 74.1179V74.1179ZM56.4159 50.3419C56.4261 50.0561 56.5089 49.7775 56.6565 49.5326C56.8042 49.2876 57.0119 49.0843 57.2599 48.9419C57.2831 48.9296 57.3054 48.9159 57.3269 48.9009C57.7188 48.6762 58.1632 48.5595 58.6149 48.5629C59.1224 48.5206 59.6275 48.6678 60.0329 48.976C60.4382 49.2842 60.715 49.7316 60.8099 50.2319C60.8263 50.4434 60.9218 50.6409 61.0774 50.785C61.2331 50.9291 61.4373 51.0091 61.6494 51.0091C61.8615 51.0091 62.0658 50.9291 62.2214 50.785C62.3771 50.6409 62.4726 50.4434 62.4889 50.2319C62.5836 49.7311 62.8607 49.2831 63.2665 48.9747C63.6723 48.6662 64.178 48.5192 64.6859 48.5619C65.1314 48.5587 65.5699 48.6722 65.9579 48.8909C65.9876 48.9125 66.0191 48.9316 66.0519 48.9479C66.2974 49.0907 66.5026 49.2933 66.6485 49.5369C66.7944 49.7805 66.876 50.0572 66.8859 50.3409C66.6273 53.1082 65.6704 55.7645 64.1049 58.0609L64.0049 58.2089C63.5001 58.4534 62.9603 58.6177 62.4049 58.6959C62.559 58.4935 62.7 58.2814 62.8269 58.0609C63.0271 57.7166 63.1855 57.3497 63.2989 56.9679C63.3236 56.8837 63.3313 56.7954 63.3219 56.7082C63.3124 56.6209 63.2858 56.5364 63.2436 56.4594C63.2015 56.3824 63.1446 56.3145 63.0761 56.2595C63.0077 56.2045 62.9292 56.1636 62.8449 56.1389C62.7607 56.1143 62.6724 56.1065 62.5852 56.116C62.4979 56.1255 62.4134 56.1521 62.3364 56.1942C62.1809 56.2794 62.0657 56.4228 62.0159 56.5929C61.8467 57.132 61.5697 57.631 61.2019 58.0599C61.0769 58.2117 60.9408 58.3541 60.7949 58.4859C60.7391 58.5335 60.6914 58.5899 60.6539 58.6529C60.1863 58.5648 59.7323 58.4152 59.3039 58.2079L59.2039 58.0599C57.6363 55.7647 56.677 53.1091 56.4159 50.3419V50.3419ZM73.0639 75.0289L70.7739 75.8739C70.6659 75.9139 70.5569 75.9519 70.4479 75.9899C69.83 73.2205 68.7999 70.5595 67.3919 68.0959C67.2982 67.9454 67.1485 67.8383 66.9758 67.7982C66.803 67.7581 66.6214 67.7882 66.4709 67.8819C66.3204 67.9757 66.2133 68.1254 66.1732 68.2981C66.1331 68.4708 66.1632 68.6524 66.2569 68.8029C67.5988 71.1781 68.5805 73.7394 69.1699 76.4029C66.0346 77.3337 62.7534 77.6728 59.4939 77.4029C59.534 76.3046 59.7977 75.2259 60.2689 74.2329C60.3469 74.0738 60.3585 73.8902 60.3011 73.7226C60.2437 73.5549 60.1221 73.4169 59.9629 73.3389C59.8841 73.3003 59.7985 73.2776 59.7109 73.2721C59.6234 73.2666 59.5356 73.2784 59.4526 73.3068C59.2849 73.3642 59.1469 73.4858 59.0689 73.6449C58.5289 74.7775 58.2209 76.0066 58.1629 77.2599C56.6501 77.0566 55.1578 76.722 53.7029 76.2599C54.0339 74.3679 55.3349 68.0429 58.4239 64.4979C58.5404 64.3643 58.5989 64.1898 58.5867 64.013C58.5745 63.8361 58.4926 63.6714 58.3589 63.5549C58.2253 63.4385 58.0508 63.3799 57.874 63.3921C57.6971 63.4043 57.5324 63.4863 57.4159 63.6199C54.1809 67.3319 52.8159 73.5899 52.4159 75.8199L50.2459 75.0199C50.1148 74.9716 50.0051 74.8784 49.9361 74.7568C49.8671 74.6353 49.8433 74.4933 49.8689 74.3559C51.0329 68.0879 53.4859 64.3389 55.3389 62.2979C56.3363 61.1602 57.524 60.2046 58.8489 59.4739C59.7291 59.8771 60.6858 60.0858 61.6539 60.0858C62.622 60.0858 63.5788 59.8771 64.4589 59.4739C65.7339 60.1309 71.4589 63.6349 73.4409 74.3739C73.4643 74.5099 73.4394 74.6498 73.3706 74.7694C73.3017 74.889 73.1933 74.9808 73.0639 75.0289V75.0289Z" fill="#ED9B9D"/>
<path d="M65.7309 65.925C65.7223 65.8822 65.7096 65.8404 65.6929 65.8C65.6764 65.7594 65.656 65.7206 65.6319 65.684C65.6077 65.648 65.5799 65.6144 65.5489 65.584C65.4712 65.5072 65.376 65.4504 65.2715 65.4185C65.167 65.3866 65.0562 65.3806 64.9489 65.401C64.9057 65.41 64.8636 65.4231 64.8229 65.44C64.7827 65.4566 64.7442 65.4771 64.7079 65.501C64.6718 65.5252 64.6383 65.553 64.6079 65.584C64.5767 65.6146 64.5486 65.6481 64.5239 65.684C64.4994 65.7205 64.4786 65.7594 64.4619 65.8C64.4452 65.8404 64.4325 65.8822 64.4239 65.925C64.4069 66.0112 64.4069 66.0999 64.4239 66.186C64.4328 66.2289 64.4458 66.2707 64.4629 66.311C64.4795 66.3515 64.5 66.3904 64.5239 66.427C64.573 66.5001 64.6358 66.5629 64.7089 66.612C64.7453 66.6358 64.7838 66.6562 64.8239 66.673C64.8645 66.69 64.9067 66.7027 64.9499 66.711C65.036 66.7288 65.1248 66.7288 65.2109 66.711C65.2538 66.7028 65.2956 66.69 65.3359 66.673C65.3763 66.6563 65.4152 66.6359 65.4519 66.612C65.4878 66.5873 65.5213 66.5591 65.5519 66.528C65.5829 66.4976 65.6107 66.4641 65.6349 66.428C65.659 66.3915 65.6795 66.3526 65.6959 66.312C65.7125 66.2717 65.7252 66.2298 65.7339 66.187C65.7516 66.1009 65.7516 66.0121 65.7339 65.926L65.7309 65.925Z" fill="#ED9B9D"/>
<path d="M63.9777 54.723C63.969 54.6803 63.9563 54.6384 63.9397 54.598C63.9231 54.5578 63.9027 54.5193 63.8787 54.483C63.8545 54.4469 63.8267 54.4134 63.7957 54.383C63.718 54.3062 63.6228 54.2495 63.5183 54.2176C63.4138 54.1857 63.3031 54.1797 63.1957 54.2C63.153 54.2088 63.1111 54.2215 63.0707 54.238C63.0305 54.2546 62.992 54.275 62.9557 54.299C62.8455 54.3724 62.7595 54.4768 62.7087 54.599C62.6922 54.6394 62.6795 54.6813 62.6707 54.724C62.6621 54.7672 62.6577 54.811 62.6577 54.855C62.6578 54.8987 62.6621 54.9422 62.6707 54.985C62.6793 55.0278 62.692 55.0697 62.7087 55.11C62.7253 55.1505 62.7457 55.1894 62.7697 55.226C62.7946 55.2619 62.8227 55.2953 62.8537 55.326C62.8842 55.357 62.9177 55.3848 62.9537 55.409C62.99 55.433 63.0285 55.4534 63.0687 55.47C63.1092 55.4865 63.151 55.4992 63.1937 55.508C63.2369 55.5166 63.2807 55.521 63.3247 55.521C63.3684 55.521 63.4119 55.5167 63.4547 55.508C63.4975 55.4994 63.5394 55.4866 63.5797 55.47C63.6203 55.4535 63.6591 55.4331 63.6957 55.409C63.7318 55.3848 63.7653 55.357 63.7957 55.326C63.8266 55.2955 63.8544 55.262 63.8787 55.226C63.9027 55.1894 63.9231 55.1505 63.9397 55.11C63.9565 55.0697 63.9692 55.0278 63.9777 54.985C63.9864 54.9422 63.9907 54.8987 63.9907 54.855C63.9908 54.8107 63.9864 54.7665 63.9777 54.723Z" fill="#ED9B9D"/>
<defs>
<filter color-interpolation-filters="sRGB" filterUnits="userSpaceOnUse" height="123" id="filter0_d" width="123" x="0" y="0">
<feFlood flood-opacity="0" result="BackgroundImageFix"/>
<feColorMatrix in="SourceAlpha" type="matrix" values="0 0 0 0 0 0 0 0 0 0 0 0 0 0 0 0 0 0 127 0"/>
<feOffset dy="-1"/>
<feGaussianBlur stdDeviation="13"/>
<feColorMatrix type="matrix" values="0 0 0 0 0.772549 0 0 0 0 0.780392 0 0 0 0 0.796078 0 0 0 0.2 0"/>
<feBlend in2="BackgroundImageFix" mode="normal" result="effect1_dropShadow"/>
<feBlend in="SourceGraphic" in2="effect1_dropShadow" mode="normal" result="shape"/>
</filter>
</defs>
</svg>
