<svg fill="none" height="123" viewBox="0 0 123 123" width="123" xmlns="http://www.w3.org/2000/svg">
<g filter="url(#filter0_d)">
<path d="M61.5 98C81.1061 98 97 82.1061 97 62.5C97 42.8939 81.1061 27 61.5 27C41.8939 27 26 42.8939 26 62.5C26 82.1061 41.8939 98 61.5 98Z" fill="white"/>
</g>
<path d="M56.4848 58.7751H56.1578V56.1251C56.1578 55.9742 56.0978 55.8295 55.9911 55.7228C55.8844 55.6161 55.7397 55.5561 55.5888 55.5561H55.5398V50.1321C55.5399 50.0265 55.5105 49.9229 55.4551 49.833C55.3996 49.7431 55.3202 49.6705 55.2258 49.6231L50.8258 47.4231C50.7391 47.3798 50.6427 47.3595 50.5459 47.3639C50.449 47.3683 50.3549 47.3974 50.2725 47.4484C50.1901 47.4993 50.122 47.5705 50.0748 47.6552C50.0276 47.7399 50.0028 47.8352 50.0028 47.9321V55.5551H49.9538C49.8791 55.5551 49.8051 55.5698 49.736 55.5984C49.667 55.627 49.6043 55.6689 49.5514 55.7218C49.4986 55.7746 49.4567 55.8373 49.4281 55.9064C49.3995 55.9754 49.3848 56.0494 49.3848 56.1241V58.7751H49.0568C48.9821 58.7751 48.9081 58.7898 48.839 58.8184C48.77 58.847 48.7073 58.8889 48.6544 58.9418C48.6016 58.9946 48.5597 59.0573 48.5311 59.1264C48.5025 59.1954 48.4878 59.2694 48.4878 59.3441V74.2701C48.4878 74.421 48.5477 74.5658 48.6544 74.6725C48.7612 74.7792 48.9059 74.8391 49.0568 74.8391H56.4838C56.6347 74.8391 56.7794 74.7792 56.8861 74.6725C56.9928 74.5658 57.0528 74.421 57.0528 74.2701V59.3411C57.0523 59.1908 56.9922 59.0469 56.8857 58.9408C56.7793 58.8347 56.6351 58.7751 56.4848 58.7751V58.7751ZM51.1398 48.8541L54.4038 50.4861V55.5561H51.1388L51.1398 48.8541ZM50.5228 56.6941H55.0228V58.7751H50.5228V56.6941ZM55.9168 73.7041H49.6258V59.9101H55.9158L55.9168 73.7041Z" fill="#ED9B9D"/>
<path d="M76.4296 68.0782H57.9576C57.8809 68.0749 57.8044 68.0873 57.7326 68.1144C57.6609 68.1415 57.5953 68.1829 57.5399 68.236C57.4845 68.2891 57.4405 68.3528 57.4104 68.4234C57.3803 68.494 57.3647 68.5699 57.3647 68.6467C57.3647 68.7234 57.3803 68.7993 57.4104 68.8699C57.4405 68.9405 57.4845 69.0042 57.5399 69.0573C57.5953 69.1104 57.6609 69.1518 57.7326 69.1789C57.8044 69.206 57.8809 69.2184 57.9576 69.2151H75.5246L75.3946 69.4852C75.0401 70.2155 74.4879 70.8318 73.8005 71.2639C73.1132 71.6959 72.3184 71.9264 71.5066 71.9292H57.9576C57.8109 71.9353 57.6723 71.9979 57.5708 72.1038C57.4692 72.2098 57.4124 72.3509 57.4124 72.4977C57.4124 72.6444 57.4692 72.7855 57.5708 72.8915C57.6723 72.9974 57.8109 73.06 57.9576 73.0662H71.5066C72.5324 73.0628 73.5368 72.7716 74.4053 72.2257C75.2738 71.6798 75.9717 70.9011 76.4196 69.9781L76.9416 68.8922C76.9832 68.8055 77.0021 68.7097 76.9966 68.6138C76.9911 68.5179 76.9615 68.4249 76.9103 68.3435C76.8592 68.2621 76.7883 68.195 76.7043 68.1484C76.6202 68.1019 76.5257 68.0773 76.4296 68.0771V68.0782Z" fill="#ED9B9D"/>
<path d="M56.6449 49.1871C57.7654 48.1449 59.0834 47.338 60.5212 46.8141C61.9589 46.2901 63.4872 46.0599 65.0154 46.1369C66.5437 46.214 68.041 46.5967 69.4188 47.2626C70.7966 47.9284 72.0268 48.8638 73.0368 50.0134C74.0467 51.163 74.8159 52.5035 75.2987 53.9555C75.7815 55.4076 75.9683 56.9417 75.8478 58.4672C75.7274 59.9927 75.3022 61.4785 74.5975 62.8368C73.8928 64.1951 72.9228 65.3982 71.7449 66.3751C71.6847 66.422 71.6346 66.4806 71.5975 66.5473C71.5604 66.614 71.5371 66.6875 71.5289 66.7634C71.5208 66.8393 71.5281 66.9161 71.5502 66.9891C71.5724 67.0622 71.609 67.13 71.658 67.1886C71.7069 67.2472 71.7671 67.2954 71.835 67.3302C71.903 67.365 71.9772 67.3859 72.0533 67.3914C72.1295 67.397 72.2059 67.3871 72.2782 67.3625C72.3505 67.3379 72.417 67.299 72.4739 67.2481C73.7533 66.169 74.8044 64.8455 75.5659 63.3551C76.3274 61.8647 76.7839 60.2374 76.9086 58.5684C77.0334 56.8994 76.8239 55.2223 76.2924 53.6353C75.761 52.0482 74.9182 50.5832 73.8135 49.3259C72.7088 48.0686 71.3644 47.0443 69.859 46.3131C68.3535 45.5818 66.7173 45.1583 65.0461 45.0672C63.375 44.9762 61.7024 45.2194 60.1264 45.7828C58.5504 46.3462 57.1027 47.2183 55.8679 48.3481C55.8118 48.3985 55.7663 48.4596 55.734 48.5278C55.7017 48.5959 55.6833 48.6699 55.6798 48.7452C55.6763 48.8206 55.6879 48.8959 55.7138 48.9667C55.7397 49.0376 55.7794 49.1026 55.8307 49.1579C55.8819 49.2133 55.9436 49.2579 56.0123 49.2892C56.0809 49.3205 56.1551 49.3378 56.2305 49.3401C56.3059 49.3425 56.381 49.3298 56.4515 49.3028C56.522 49.2759 56.5864 49.2352 56.6409 49.1831L56.6449 49.1871Z" fill="#ED9B9D"/>
<path d="M64.4178 48.5072C65.891 48.5071 67.3421 48.8655 68.6459 49.5515C69.9496 50.2375 71.0669 51.2305 71.9012 52.4447C72.7354 53.6589 73.2617 55.0579 73.4346 56.521C73.6074 57.984 73.4216 59.4672 72.8933 60.8424C72.3649 62.2176 71.5098 63.4435 70.4018 64.4145C69.2938 65.3854 67.9662 66.0721 66.5335 66.4153C65.1008 66.7586 63.6061 66.748 62.1784 66.3845C60.7507 66.0211 59.433 65.3157 58.3388 64.3292C58.284 64.2756 58.219 64.2336 58.1475 64.2058C58.0761 64.178 57.9999 64.1648 57.9233 64.1672C57.8467 64.1696 57.7713 64.1874 57.7018 64.2196C57.6323 64.2518 57.5699 64.2978 57.5186 64.3546C57.4672 64.4115 57.4279 64.4782 57.4029 64.5507C57.378 64.6231 57.3679 64.6999 57.3734 64.7763C57.3788 64.8527 57.3996 64.9273 57.4346 64.9955C57.4695 65.0637 57.5179 65.1241 57.5768 65.1732C59.1098 66.5552 61.0255 67.4405 63.0716 67.7124C65.1176 67.9842 67.198 67.63 69.0388 66.6963C70.8796 65.7625 72.3943 64.2931 73.3835 62.4816C74.3727 60.67 74.79 58.6013 74.5804 56.548C74.3709 54.4946 73.5442 52.5529 72.2094 50.9786C70.8745 49.4043 69.0941 48.2712 67.1027 47.7287C65.1112 47.1861 63.0021 47.2595 61.0532 47.9391C59.1043 48.6188 57.407 49.8729 56.1848 51.5362C56.1373 51.5961 56.1023 51.6649 56.082 51.7387C56.0617 51.8124 56.0564 51.8894 56.0665 51.9652C56.0767 52.041 56.102 52.114 56.1409 52.1798C56.1799 52.2456 56.2317 52.3028 56.2933 52.3481C56.3549 52.3935 56.425 52.4259 56.4994 52.4435C56.5738 52.4611 56.651 52.4636 56.7264 52.4507C56.8017 52.4378 56.8737 52.4099 56.9381 52.3686C57.0024 52.3272 57.0577 52.2734 57.1008 52.2102C57.9466 51.0645 59.049 50.1329 60.3196 49.4899C61.5902 48.8468 62.9937 48.5103 64.4178 48.5072V48.5072Z" fill="#ED9B9D"/>
<path d="M70.6726 53.1022L60.2956 63.4842C60.2076 63.5935 60.1632 63.7314 60.1708 63.8715C60.1783 64.0116 60.2374 64.144 60.3366 64.2432C60.4358 64.3424 60.5681 64.4014 60.7082 64.409C60.8483 64.4166 60.9862 64.3721 61.0956 64.2842L71.4736 53.9052C71.5358 53.8551 71.5868 53.7925 71.6233 53.7214C71.6597 53.6503 71.6808 53.5723 71.6851 53.4925C71.6894 53.4128 71.6769 53.333 71.6483 53.2584C71.6197 53.1837 71.5758 53.116 71.5193 53.0595C71.4628 53.003 71.395 52.959 71.3204 52.9304C71.2458 52.9019 71.166 52.8893 71.0862 52.8937C71.0064 52.898 70.9285 52.919 70.8574 52.9555C70.7863 52.9919 70.7236 53.0429 70.6736 53.1052L70.6726 53.1022Z" fill="#ED9B9D"/>
<path d="M63.4557 63.5552C63.3678 63.6645 63.3233 63.8024 63.3309 63.9425C63.3385 64.0826 63.3975 64.2149 63.4967 64.3141C63.5959 64.4133 63.7283 64.4724 63.8684 64.48C64.0085 64.4875 64.1464 64.4431 64.2557 64.3551L72.0477 56.5631C72.11 56.5131 72.161 56.4504 72.1974 56.3793C72.2339 56.3082 72.2549 56.2303 72.2593 56.1505C72.2636 56.0707 72.251 55.9909 72.2224 55.9163C72.1939 55.8417 72.1499 55.7739 72.0934 55.7174C72.0369 55.6609 71.9692 55.617 71.8946 55.5884C71.8199 55.5598 71.7402 55.5473 71.6604 55.5516C71.5806 55.5559 71.5026 55.577 71.4315 55.6134C71.3604 55.6499 71.2978 55.7009 71.2477 55.7631L63.4557 63.5552Z" fill="#ED9B9D"/>
<defs>
<filter color-interpolation-filters="sRGB" filterUnits="userSpaceOnUse" height="123" id="filter0_d" width="123" x="0" y="0">
<feFlood flood-opacity="0" result="BackgroundImageFix"/>
<feColorMatrix in="SourceAlpha" type="matrix" values="0 0 0 0 0 0 0 0 0 0 0 0 0 0 0 0 0 0 127 0"/>
<feOffset dy="-1"/>
<feGaussianBlur stdDeviation="13"/>
<feColorMatrix type="matrix" values="0 0 0 0 0.772549 0 0 0 0 0.780392 0 0 0 0 0.796078 0 0 0 0.2 0"/>
<feBlend in2="BackgroundImageFix" mode="normal" result="effect1_dropShadow"/>
<feBlend in="SourceGraphic" in2="effect1_dropShadow" mode="normal" result="shape"/>
</filter>
</defs>
</svg>
