<svg xmlns="http://www.w3.org/2000/svg" xmlns:xlink="http://www.w3.org/1999/xlink" width="149" height="149" viewBox="0 0 149 149">
  <defs>
    <filter id="Elipse_1623" x="0" y="0" width="149" height="149" filterUnits="userSpaceOnUse">
      <feOffset dy="-1" input="SourceAlpha"/>
      <feGaussianBlur stdDeviation="13" result="blur"/>
      <feFlood flood-color="#c5c7cb" flood-opacity="0.2"/>
      <feComposite operator="in" in2="blur"/>
      <feComposite in="SourceGraphic"/>
    </filter>
  </defs>
  <g id="ICON_6" data-name="ICON 6" transform="translate(39 40)">
    <g transform="matrix(1, 0, 0, 1, -39, -40)" filter="url(#Elipse_1623)">
      <circle id="Elipse_1623-2" data-name="Elipse 1623" cx="35.5" cy="35.5" r="35.5" transform="translate(39 40)" fill="#fff"/>
    </g>
    <g id="_002-apron" data-name="002-apron" transform="translate(22.297 16.005)">
      <path id="Trazado_11226" data-name="Trazado 11226" d="M151.649,281.944a.557.557,0,0,0-.725-.311l-2.58,1.032-2.58-1.032a.558.558,0,1,0-.415,1.036l1.493.6-1.493.6a.558.558,0,1,0,.415,1.036l2.58-1.032,2.58,1.032a.558.558,0,1,0,.415-1.036l-1.493-.6,1.493-.6a.557.557,0,0,0,.311-.725Zm0,0" transform="translate(-135.527 -263.198)" fill="#ed9b9d"/>
      <path id="Trazado_11227" data-name="Trazado 11227" d="M172.275,209.818a1.719,1.719,0,0,0,1.672-1.758,6.3,6.3,0,0,0-1-2.866.767.767,0,0,0-1.338,0,6.3,6.3,0,0,0-1,2.869A1.719,1.719,0,0,0,172.275,209.818Zm0-3.512a4.425,4.425,0,0,1,.558,1.754.563.563,0,1,1-1.115,0A4.43,4.43,0,0,1,172.275,206.306Zm0,0" transform="translate(-159.458 -191.423)" fill="#ed9b9d"/>
      <path id="Trazado_11228" data-name="Trazado 11228" d="M23.486,4.281a10.79,10.79,0,0,1-3.557-1.789A11.659,11.659,0,0,0,12.818,0,11.659,11.659,0,0,0,5.707,2.492,10.792,10.792,0,0,1,2.15,4.281a2.867,2.867,0,0,0,.441,5.63c.251.022.533.036.842.036a10.736,10.736,0,0,0,3.252-.515v4.228A7.974,7.974,0,0,1,6.529,15.2a101.522,101.522,0,0,0-1.5,15.913,2.233,2.233,0,0,0,1.947,2.252,10.655,10.655,0,0,0,1.383.082h8.919a10.66,10.66,0,0,0,1.383-.082,2.233,2.233,0,0,0,1.947-2.252,101.559,101.559,0,0,0-1.5-15.912,7.994,7.994,0,0,1-.157-1.539V9.432a10.73,10.73,0,0,0,3.253.516c.309,0,.592-.014.842-.035a2.868,2.868,0,0,0,.441-5.63Zm-6.295.836c.012.034.027.067.039.1.105.3.191.6.269.915H8.135c.078-.311.164-.618.269-.915.012-.034.027-.067.039-.1a9.37,9.37,0,0,1,.413-.965C9.863,2.137,11.2,1.115,12.818,1.115s2.954,1.022,3.958,3.036a9.338,9.338,0,0,1,.415.965ZM2.685,8.8A1.747,1.747,0,0,1,1.112,7.058,1.728,1.728,0,0,1,2.4,5.367,11.817,11.817,0,0,0,6.328,3.416a16.265,16.265,0,0,1,2.7-1.561c-.045.052-.087.112-.131.163l-.09.112c-.156.2-.306.412-.451.639-.024.038-.047.079-.071.118-.149.242-.293.495-.429.766-.153.307-.288.627-.413.954-.023.059-.047.118-.069.178-.108.3-.2.61-.285.924-.023.085-.045.167-.066.255q-.116.486-.194.987c-.008.056-.016.112-.023.167-.052.373-.09.751-.107,1.133A9.481,9.481,0,0,1,2.685,8.8ZM19.492,31.135a1.119,1.119,0,0,1-.978,1.124,9.537,9.537,0,0,1-1.237.073H8.358a9.525,9.525,0,0,1-1.236-.073,1.118,1.118,0,0,1-.979-1.123,100.462,100.462,0,0,1,1.48-15.72A9.125,9.125,0,0,0,7.8,13.661V8.86c0-.07,0-.139.006-.209.007-.4.035-.794.08-1.179,0-.029.008-.058.012-.087.006-.047.018-.091.024-.137h9.79c.007.046.018.09.024.137,0,.029.008.056.012.087.045.385.073.777.08,1.179,0,.07.006.139.006.209v4.8a9.113,9.113,0,0,0,.177,1.753,100.43,100.43,0,0,1,1.48,15.721ZM22.948,8.8a9.464,9.464,0,0,1-4.015-.552c-.018-.382-.056-.76-.107-1.133-.007-.056-.015-.112-.023-.167q-.077-.5-.194-.987c-.021-.086-.043-.171-.066-.255-.083-.314-.177-.623-.285-.924-.022-.06-.046-.119-.069-.178-.124-.327-.259-.647-.412-.954-.136-.272-.279-.524-.429-.766-.024-.039-.047-.08-.071-.118-.144-.227-.295-.439-.45-.639l-.09-.112c-.044-.056-.086-.112-.13-.163a16.284,16.284,0,0,1,2.7,1.561,11.807,11.807,0,0,0,3.923,1.951,1.728,1.728,0,0,1,1.293,1.692A1.747,1.747,0,0,1,22.95,8.8Zm0,0" transform="translate(-0.001 0)" fill="#ed9b9d"/>
    </g>
  </g>
</svg>
