<svg xmlns="http://www.w3.org/2000/svg" width="17.705" height="17.757" viewBox="0 0 17.705 17.757">
  <g id="notification" transform="translate(0.521 0.5)">
    <path id="Trazado_11482" data-name="Trazado 11482" d="M15.707,14.662H10.47a2.095,2.095,0,1,1-4.189,0H1.044A1.006,1.006,0,0,1,.1,13.929a1.118,1.118,0,0,1,.314-1.152A4.216,4.216,0,0,0,2.092,9.426V6.284a6.284,6.284,0,0,1,12.568,0V9.426a4.216,4.216,0,0,0,1.676,3.351.992.992,0,0,1,.314,1.152A1.006,1.006,0,0,1,15.707,14.662Z" transform="translate(-0.063)" fill="none" stroke="#656b6e" stroke-width="1" fill-rule="evenodd"/>
  </g>
</svg>
