<svg xmlns="http://www.w3.org/2000/svg" width="17.178" height="18.486" viewBox="0 0 17.178 18.486">
  <g id="shopping-cart_1_" data-name="shopping-cart(1)" transform="translate(-0.001 0)">
    <path id="Trazado_11265" data-name="Trazado 11265" d="M22.1,12.172H32.282a2.1,2.1,0,0,0,2.1-2.1V5.743a.048.048,0,0,0,0-.023c0-.008,0-.019,0-.027s0-.015,0-.023a.244.244,0,0,1-.008-.027c0-.008,0-.015-.008-.023s0-.015-.008-.023a.185.185,0,0,1-.011-.027.083.083,0,0,0-.011-.019l-.011-.023c0-.008-.008-.011-.011-.019s-.011-.015-.015-.023a.067.067,0,0,0-.015-.019c0-.008-.011-.011-.015-.019s-.011-.011-.015-.019-.011-.011-.015-.015L34.2,5.4c-.008,0-.011-.011-.019-.015s-.015-.011-.023-.015l-.019-.011a.079.079,0,0,1-.023-.015L34.1,5.329l-.023-.011-.023-.011c-.008,0-.015,0-.023-.008A.07.07,0,0,0,34,5.291a.165.165,0,0,1-.019,0,.084.084,0,0,0-.03,0s-.008,0-.015,0L21.029,3.5V1.7a.234.234,0,0,0,0-.053.029.029,0,0,0,0-.015c0-.011,0-.023,0-.034s0-.019-.008-.03,0-.011,0-.019l-.011-.034s0-.011,0-.015a.114.114,0,0,0-.015-.03s0-.011-.008-.015a.079.079,0,0,0-.015-.023c0-.008-.008-.011-.011-.019s-.008-.011-.011-.019-.011-.015-.015-.023L20.9,1.355l-.023-.023-.011-.011a.165.165,0,0,0-.027-.023l-.015-.011c-.008-.008-.015-.011-.023-.019l-.03-.019s-.008,0-.011-.008l-.049-.023L17.913.041a.513.513,0,1,0-.4.946L20,2.035V13.273a2.1,2.1,0,0,0,1.827,2.078,2.07,2.07,0,1,0,3.845,1.064,2.031,2.031,0,0,0-.285-1.045H30a2.042,2.042,0,0,0-.285,1.045,2.071,2.071,0,1,0,2.071-2.071H22.1a1.073,1.073,0,0,1-1.071-1.071V11.883A2.121,2.121,0,0,0,22.1,12.172Zm2.553,4.24A1.045,1.045,0,1,1,23.6,15.367,1.047,1.047,0,0,1,24.649,16.411Zm8.183,0a1.045,1.045,0,1,1-1.045-1.045A1.047,1.047,0,0,1,32.833,16.411Zm-.551-5.266H22.1a1.073,1.073,0,0,1-1.071-1.071V4.531l12.328,1.7v3.841A1.073,1.073,0,0,1,32.282,11.146Z" transform="translate(-17.2 0)" fill="#c5cdd2"/>
  </g>
</svg>
