<svg xmlns="http://www.w3.org/2000/svg" width="15.014" height="18.756" viewBox="0 0 15.014 18.756">
  <g id="shopping-bag" transform="translate(-0.001)">
    <path id="Trazado_11266" data-name="Trazado 11266" d="M63.809,16.213,62.735,4.12a.517.517,0,0,0-.514-.472H60.012a3.706,3.706,0,0,0-7.411,0H50.392a.514.514,0,0,0-.514.472L48.8,16.213c0,.015,0,.031,0,.046a2.673,2.673,0,0,0,2.815,2.5H61a2.673,2.673,0,0,0,2.815-2.5A.187.187,0,0,0,63.809,16.213Zm-7.5-15.178a2.672,2.672,0,0,1,2.67,2.612H53.637A2.672,2.672,0,0,1,56.306,1.036ZM61,17.721H51.615a1.652,1.652,0,0,1-1.78-1.438l1.028-11.6H52.6V6.26a.518.518,0,1,0,1.036,0V4.687h5.343V6.26a.518.518,0,1,0,1.036,0V4.687h1.734l1.032,11.6A1.655,1.655,0,0,1,61,17.721Z" transform="translate(-48.8)" fill="#ed9b9d"/>
  </g>
</svg>
