<svg fill="none" height="100" viewBox="0 0 100 100" width="100" xmlns="http://www.w3.org/2000/svg">
<path d="M44.4277 56.3658C43.6675 57.049 42.5144 57.049 41.7541 56.3658L35.3596 50.6193C34.5993 49.936 33.4462 49.936 32.6859 50.6193L32.6553 50.6468C31.7711 51.4414 31.7711 52.8273 32.6553 53.6219L41.7541 61.7986C42.5144 62.4819 43.6675 62.4819 44.4277 61.7986L67.3447 41.204C68.2289 40.4094 68.2289 39.0235 67.3447 38.2288L67.3141 38.2014C66.5538 37.5181 65.4007 37.5181 64.6404 38.2014L44.4277 56.3658Z" fill="white"/>
<path clip-rule="evenodd" d="M8.33331 50C8.33331 27 26.9583 8.33334 49.9583 8.33334C73 8.33334 91.6667 27 91.6667 50C91.6667 73 73 91.6667 49.9583 91.6667C26.9583 91.6667 8.33331 73 8.33331 50ZM11.6666 50.1667C11.6666 71.4379 28.8954 88.6667 50.1666 88.6667C71.4379 88.6667 88.6666 71.4379 88.6666 50.1667C88.6666 28.8954 71.4379 11.6667 50.1666 11.6667C28.8954 11.6667 11.6666 28.8954 11.6666 50.1667Z" fill="white" fill-rule="evenodd"/>
</svg>
