<svg width="138" height="43" viewBox="0 0 138 43" fill="none" xmlns="http://www.w3.org/2000/svg">
<path d="M23 1.5H2L13.5 8L23 41.5H35.5L51 1.5H39.5L29.5 27L23 1.5Z" fill="white" stroke="white"/>
<path d="M49 41.5H60.5L67 1H55.5L49 41.5Z" fill="white"/>
<path d="M89 41.5C80.9 42.6654 76.0639 42.6213 67 41.5L69 31C77.8109 34.9859 80.8628 35.0266 84.5 33C87.4403 30.764 87.5563 28.5941 82 26C77.8769 23.7875 75.7044 22.2423 72.5 18C71.6408 14.8761 71.4588 13.1239 72.5 10C73.7546 6.89168 74.7867 5.18056 80.5 2.5C88.1145 1.01334 92.3857 1.11456 100 2.5L99 11.5C94.2572 9.24136 91.4748 8.59621 86 10C81.5063 12.54 82.2334 14.3028 89 18C102.418 22.9104 102.032 34.7642 89 41.5Z" fill="white"/>
<path fill-rule="evenodd" clip-rule="evenodd" d="M98 41.5L115 1H128L137 41.5H125.5V36H111.5L108.5 41.5H98ZM123 27H115L120.5 14L123 27Z" fill="white"/>
<path d="M49 41.5H60.5L67 1H55.5L49 41.5Z" stroke="white"/>
<path d="M89 41.5C80.9 42.6654 76.0639 42.6213 67 41.5L69 31C77.8109 34.9859 80.8628 35.0266 84.5 33C87.4403 30.764 87.5563 28.5941 82 26C77.8769 23.7875 75.7044 22.2423 72.5 18C71.6408 14.8761 71.4588 13.1239 72.5 10C73.7546 6.89168 74.7867 5.18056 80.5 2.5C88.1145 1.01334 92.3857 1.11456 100 2.5L99 11.5C94.2572 9.24136 91.4748 8.59621 86 10C81.5063 12.54 82.2334 14.3028 89 18C102.418 22.9104 102.032 34.7642 89 41.5Z" stroke="white"/>
<path fill-rule="evenodd" clip-rule="evenodd" d="M98 41.5L115 1H128L137 41.5H125.5V36H111.5L108.5 41.5H98ZM123 27H115L120.5 14L123 27Z" stroke="white"/>
</svg>
